<?xml version="1.0" encoding="UTF-8" standalone="no"?>
<svg
   xmlns="http://www.w3.org/2000/svg"
   id="michalpruchniak"
   version="1.1"
   viewBox="0 0 160 80"
>

  <g
     id="layer1"
     transform="translate(-39.599906,-123.41216)">
    <g
       aria-label="MICHAL PRUCHNIAK"
       style="font-style:normal;font-variant:normal;font-weight:normal;font-stretch:normal;font-size:5.29166651px;line-height:1.25;font-family:'Bebas Neue';-inkscape-font-specification:'Bebas Neue';letter-spacing:0px;word-spacing:0px;fill:#000000;fill-opacity:1;stroke:none;stroke-width:0.26458332"
       id="text817">
      <path
         d="m 39.599906,123.55327 h 2.215445 l 0.987778,7.06966 h 0.02822 l 0.987777,-7.06966 h 2.215445 v 9.87778 h -1.467556 v -7.47889 h -0.02822 l -1.128889,7.47889 h -1.298222 l -1.128889,-7.47889 h -0.02822 v 7.47889 h -1.354667 z"
         style="font-size:14.11111069px;stroke-width:0.26458332"
         id="m"
      />
      <path
         d="m 47.191658,123.55327 h 1.552223 v 9.87778 h -1.552223 z"
         style="font-size:14.11111069px;stroke-width:0.26458332"
         id="path816"
      />
      <path
         d="m 52.088205,133.57216 q -1.114777,0 -1.707444,-0.635 -0.578555,-0.635 -0.578555,-1.79211 v -5.30578 q 0,-1.15711 0.578555,-1.79211 0.592667,-0.635 1.707444,-0.635 1.114778,0 1.693334,0.635 0.592666,0.635 0.592666,1.79211 v 1.04422 H 52.90665 v -1.143 q 0,-0.91722 -0.776111,-0.91722 -0.776111,0 -0.776111,0.91722 v 5.51744 q 0,0.90312 0.776111,0.90312 0.776111,0 0.776111,-0.90312 v -1.50988 h 1.467555 v 1.397 q 0,1.15711 -0.592666,1.79211 -0.578556,0.635 -1.693334,0.635 z"
         style="font-size:14.11111069px;stroke-width:0.26458332"
         id="path818"
      />
      <path
         d="m 55.305531,123.55327 h 1.552222 v 4.02166 h 1.665111 v -4.02166 h 1.552222 v 9.87778 h -1.552222 v -4.445 h -1.665111 v 4.445 h -1.552222 z"
         style="font-size:14.11111069px;stroke-width:0.26458332"
         id="path820"
      />
      <path
         d="m 62.431616,123.55327 h 2.102555 l 1.608667,9.87778 h -1.552222 l -0.282222,-1.96145 v 0.0282 h -1.763889 l -0.282222,1.93323 h -1.439334 z m 1.693333,6.604 -0.691444,-4.88245 h -0.02822 l -0.677334,4.88245 z"
         style="font-size:14.11111069px;stroke-width:0.26458332"
         id="path822"
      />
      <path
         d="m 66.890714,123.55327 h 1.552222 v 8.46666 h 2.554111 v 1.41112 h -4.106333 z"
         style="font-size:14.11111069px;stroke-width:0.26458332"
         id="path824"
      />
      <path
         d="m 74.002708,123.55327 h 2.286 q 1.157111,0 1.735666,0.62089 0.578556,0.62089 0.578556,1.82033 v 0.97367 q 0,1.19944 -0.578556,1.82033 -0.578555,0.62089 -1.735666,0.62089 H 75.55493 v 4.02167 h -1.552222 z m 2.286,4.445 q 0.381,0 0.564444,-0.21167 0.197556,-0.21167 0.197556,-0.71967 v -1.17122 q 0,-0.508 -0.197556,-0.71966 -0.183444,-0.21167 -0.564444,-0.21167 H 75.55493 v 3.03389 z"
         style="font-size:14.11111069px;stroke-width:0.26458332"
         id="path826"
      />
      <path
         d="m 79.449592,123.55327 h 2.300111 q 1.199445,0 1.749778,0.56444 0.550333,0.55034 0.550333,1.70745 v 0.60677 q 0,1.53812 -1.016,1.94734 v 0.0282 q 0.564445,0.16933 0.790222,0.69144 0.239889,0.52212 0.239889,1.397 v 1.73567 q 0,0.42333 0.02822,0.69145 0.02822,0.254 0.141112,0.508 h -1.580445 q -0.08467,-0.23989 -0.112889,-0.45156 -0.02822,-0.21167 -0.02822,-0.762 v -1.80622 q 0,-0.67734 -0.225778,-0.94545 -0.211666,-0.26811 -0.747889,-0.26811 h -0.536222 v 4.23334 h -1.552222 z m 2.116667,4.23333 q 0.465666,0 0.691444,-0.23989 0.239889,-0.23989 0.239889,-0.80433 v -0.762 q 0,-0.53622 -0.197556,-0.77611 -0.183444,-0.23989 -0.592666,-0.23989 h -0.705556 v 2.82222 z"
         style="font-size:14.11111069px;stroke-width:0.26458332"
         id="path828"
      />
      <path
         d="m 87.394145,133.57216 q -1.128889,0 -1.721556,-0.635 -0.592666,-0.64911 -0.592666,-1.84856 v -7.53533 h 1.552222 v 7.64822 q 0,0.508 0.197556,0.73378 0.211666,0.22578 0.592666,0.22578 0.381,0 0.578556,-0.22578 0.211666,-0.22578 0.211666,-0.73378 v -7.64822 h 1.495778 v 7.53533 q 0,1.19945 -0.592667,1.84856 -0.592666,0.635 -1.721555,0.635 z"
         style="font-size:14.11111069px;stroke-width:0.26458332"
         id="path830"
      />
      <path
         d="m 92.996235,133.57216 q -1.114778,0 -1.707444,-0.635 -0.578556,-0.635 -0.578556,-1.79211 v -5.30578 q 0,-1.15711 0.578556,-1.79211 0.592666,-0.635 1.707444,-0.635 1.114778,0 1.693333,0.635 0.592667,0.635 0.592667,1.79211 v 1.04422 h -1.467556 v -1.143 q 0,-0.91722 -0.776111,-0.91722 -0.776111,0 -0.776111,0.91722 v 5.51744 q 0,0.90312 0.776111,0.90312 0.776111,0 0.776111,-0.90312 v -1.50988 h 1.467556 v 1.397 q 0,1.15711 -0.592667,1.79211 -0.578555,0.635 -1.693333,0.635 z"
         style="font-size:14.11111069px;stroke-width:0.26458332"
         id="path832"
      />
      <path
         d="m 96.213561,123.55327 h 1.552223 v 4.02166 h 1.665111 v -4.02166 h 1.552225 v 9.87778 h -1.552225 v -4.445 h -1.665111 v 4.445 h -1.552223 z"
         style="font-size:14.11111069px;stroke-width:0.26458332"
         id="path834"
      />
      <path
         d="m 102.1402,123.55327 h 1.94733 l 1.50989,5.91255 h 0.0282 v -5.91255 h 1.38288 v 9.87778 h -1.59455 l -1.86267,-7.21078 h -0.0282 v 7.21078 h -1.38289 z"
         style="font-size:14.11111069px;stroke-width:0.26458332"
         id="path836"
      />
      <path
         d="m 108.16562,123.55327 h 1.55222 v 9.87778 h -1.55222 z"
         style="font-size:14.11111069px;stroke-width:0.26458332"
         id="path838"
      />
      <path
         d="m 112.07439,123.55327 h 2.10256 l 1.60866,9.87778 h -1.55222 l -0.28222,-1.96145 v 0.0282 h -1.76389 l -0.28222,1.93323 h -1.43934 z m 1.69333,6.604 -0.69144,-4.88245 h -0.0282 l -0.67734,4.88245 z"
         style="font-size:14.11111069px;stroke-width:0.26458332"
         id="path840"
      />
      <path
         d="m 116.53348,123.55327 h 1.55223 v 4.16278 l 1.97555,-4.16278 h 1.55222 l -1.84855,3.62655 1.87678,6.25123 h -1.62278 l -1.31233,-4.40267 -0.62089,1.25589 v 3.14678 h -1.55223 z"
         style="font-size:14.11111069px;stroke-width:0.26458332"
         id="path842"
      />
    </g>
  </g>
</svg>
