








<svg id="codeThinking" data-name="Layer 1" xmlns="http://www.w3.org/2000/svg" width="1500.14567" height="573.57499" viewBox="0 0 664.14567 573.57499">
 <g
     id="person"
     transform="matrix(0.54981407,0,0,0.54981407,-156.18495,0)">
    <path
       id="path2"
       transform="translate(-90.2579,-231.65939)"
       d="m 314.02808,475.27364 a 9.75072,9.75072 0 1 0 -19.40734,1.28194 l -28.01439,36.68607 a 13.58254,13.58254 0 0 0 1.83575,14.91417 l 2.19759,2.56354 10.083,-2.01667 11.42794,-10.08331 -1.34463,-11.42774 14.1167,-22.18324 -0.0183,-0.0159 a 9.74283,9.74283 0 0 0 9.12363,-9.71884 z"
       style="fill:#ffb9b9"
       />
    <polygon
       id="polygon4"
       points="25.468,405.984 88.8,380.265 95.549,405.331 30.041,422.968 "
       style="fill:#ffb8b8" />
    <path
       id="path6"
       transform="translate(-90.2579,-231.65939)"
       d="m 105.002,663.39128 -14.7441,-54.76212 0.69264,-0.18651 a 22.07516,22.07516 0 0 1 27.054,15.57522 l 3.7e-4,10e-4 9.00509,33.44687 z"
       style="fill:#2f2e41"
       />
    <polygon
       id="polygon8"
       points="103.054,409.91 136.185,350.121 157.179,365.388 117.278,420.254 "
       style="fill:#ffb8b8" />
    <path
       id="path10"
       transform="translate(-90.2579,-231.65939)"
       d="m 201.1368,668.34061 -45.86612,-33.35531 0.42187,-0.58015 a 22.07517,22.07517 0 0 1 30.8348,-4.87041 l 10e-4,8.2e-4 28.01339,20.37244 z"
       style="fill:#2f2e41"
       />
    <path
       id="path12"
       transform="translate(-90.2579,-231.65939)"
       d="m 328.45025,568.36357 -35.795,-34.77263 a 18.07626,18.07626 0 0 0 -23.66833,-1.3221 l -67.58632,75.08366 6.05018,9.41084 64.53278,-43.69434 43.69437,57.13867 41.67764,-20.83841 z"
       style="fill:#2f2e41"
       />
    <path
       id="path14"
       transform="translate(-90.2579,-231.65939)"
       d="m 312.98939,575.75807 -26.21673,-2.01667 -18.986,-4.60272 a 9.75256,9.75256 0 1 0 -1.85,12.65572 l -0.003,0.0136 11.42793,4.70553 49.07181,16.80551 6.05,-4.70553 z"
       style="fill:#ffb9b9"
       />
    <polygon
       id="polygon16"
       points="49.971,391.826 158.871,344.099 254.326,375.693 285.92,416.699 271.131,426.11 253.653,426.11 172.315,395.86 53.332,417.371 "
       style="fill:#2f2e41" />
    <circle
       id="circle18"
       r="26.216579"
       cy="227.13245"
       cx="254.32578"
       style="fill:#ffb9b9" />
    <path
       id="path20"
       transform="translate(-90.2579,-231.65939)"
       d="m 412.41738,563.46316 a 150.631,150.631 0 0 1 -7.3877,46.59159 l -1.96286,6.03657 -9.4111,43.0221 -10.08328,2.68886 -7.39442,-9.41107 -14.78884,-10.7555 -10.75552,-17.47771 -9.22284,-15.367 -2.87712,-4.79967 -10.08331,-50.41649 -38.31653,-21.511 -12.77217,-2.01667 2.68889,-7.39442 11.42774,-15.46106 11.42768,-1.34449 3.36111,-2.68888 2.68888,1.34443 14.82257,5.71013 48.05688,-20.304 7.03142,1.14951 24.19988,20.16661 a 150.49912,150.49912 0 0 1 9.35064,52.23816 z"
       style="fill:#cccccc"
       />
    <polygon
       id="polygon22"
       style="opacity:0.1;isolation:isolate"
       points="263.065,293.683 314.825,325.949 289.281,342.754 251.153,377.131 248.276,372.332 240.209,331.999 242.226,331.999 " />
    <polygon
       id="polygon24"
       points="314.825,321.915 263.065,289.649 242.226,327.965 230.126,341.41 219.371,344.099 248.276,375.693 289.281,338.721 "
       style="fill:#cccccc" />
    <path
       id="path26"
       transform="translate(-90.2579,-231.65939)"
       d="m 324.19252,439.29866 -2.8405,1.09286 a 3.96532,3.96532 0 0 1 -1.06033,-5.50666 q 0.0229,-0.0339 0.0466,-0.0673 l -5.24917,-0.24564 a 39.63744,39.63744 0 0 1 59.17341,-4.76951 c 0.239,-0.8231 2.84419,0.7783 3.90783,2.40209 0.35739,-1.33937 2.8001,5.13521 3.66407,9.71188 0.4,-1.52384 1.93791,0.9362 0.59056,3.2967 0.8537,-0.12472 1.23931,2.05947 0.57843,3.27633 0.934,-0.43878 0.77654,2.16855 -0.23609,3.911 1.3327,-0.11841 -0.1137,27.33122 -20.1137,25.33122 -1.39236,-6.39749 -1,-6 -2.63957,-14.22639 -0.76312,-0.81 -1.59882,-1.54779 -2.43315,-2.28425 l -4.51259,-3.9833 c -5.2473,-4.63182 -10.02063,-10.34844 -17.01093,-12.07955 -4.80393,-1.18968 -7.84143,-1.45827 -5.22344,-6.87151 -2.36532,0.98706 -4.57411,2.45493 -6.96063,3.37169 0.0321,-0.7564 0.36561,-1.60282 0.31919,-2.35961 z"
       style="fill:#2f2e41"
       />
    <circle
       id="circle28"
       r="4.7055402"
       cy="230.15744"
       cx="267.43405"
       style="fill:#ffb9b9" />
  </g>
  <rect
     x="-85.801941"
     y="-125.15985"
     width="11.881532"
     height="11.881532"
     transform="rotate(-86.18992)"
     style="isolation:isolate;fill:#e6e6e6;stroke-width:0.54981405"
     id="rect30" />
  <path
     d="m -137.44419,71.73531 14.39569,0.9587 -0.95871,14.39569 -14.39568,-0.9587 z m 13.7281,1.54293 -13.14388,-0.87534 -0.87534,13.14386 13.14389,0.87533 z"
     id="path32"
     style="fill:#cccccc;stroke-width:0.54981405"
     />
  <rect
     x="-79.641602"
     y="16.417473"
     width="11.881532"
     height="11.881532"
     transform="rotate(-12.12675)"
     style="isolation:isolate;fill:#e6e6e6;stroke-width:0.54981405"
     id="rect34" />
  <path
     d="m -70.952494,24.65927 3.03088,14.10561 -14.10562,3.03087 -3.03087,-14.10561 z m 2.28582,13.6241 -2.76733,-12.87904 -12.87905,2.76733 2.76732,12.87905 z"
     id="path36"
     style="fill:#cccccc;stroke-width:0.54981405"
     />
  <rect
     x="-125.46359"
     y="11.543615"
     width="11.881526"
     height="11.881532"
     transform="rotate(-43.12712)"
     style="isolation:isolate;fill:#e6e6e6;stroke-width:0.54981405"
     id="rect38" />
  <path
     d="m -66.259204,84.85679 -10.52979,9.86298 -9.86297,-10.52981 10.5298,-9.86296 z m -10.50081,8.97633 9.61416,-9.00531 -9.00532,-9.61416 -9.61416,9.00533 z"
     id="path40"
     style="fill:#cccccc;stroke-width:0.54981405"
     />
  <path
     d="M 373.43836,0 H 21.896706 a 9.6758975,9.6758975 0 0 0 -9.67591,9.6759001 V 205.54837 a 9.6759249,9.6759249 0 0 0 9.67591,9.67595 H 373.43836 a 9.675936,9.675936 0 0 0 9.67591,-9.67595 V 9.6759001 A 9.675914,9.675914 0 0 0 373.43836,0 Z"
     id="path42"
     style="fill:#3f3d56;stroke-width:0.54981405"
     />
  <rect
     x="25.193232"
     y="17.100004"
     width="344.94858"
     height="194.58636"
     id="rect44"
     style="fill:#ffffff;stroke-width:0.54981405" />
  <circle
     cx="197.3727"
     cy="8.2551861"
     r="3.5379272"
     id="circle46"
     style="fill:#ffffff;stroke-width:0.54981405" />
  <polygon
     points="329.89,385.015 329.89,31.102 777.858,385.015 "
     style="isolation:isolate;fill:#f2f2f2"
     id="polygon48"
     transform="matrix(0.54981407,0,0,0.54981407,-156.18495,0)" />
  <circle
     cx="79.167351"
     cy="163.9679"
     r="33.157528"
     id="circle50"
     style="fill:#6c63ff;stroke-width:0.54981405" />
  <path
     d="m 86.548566,188.88896 a 41.244725,41.244725 0 1 1 41.244754,-41.24471 41.244732,41.244732 0 0 1 -41.244754,41.24471 z m 0,-81.95034 a 40.705589,40.705589 0 1 0 40.705594,40.70565 40.705584,40.705584 0 0 0 -40.705604,-40.70561 z"
     id="path52"
     style="fill:#3f3d56;stroke-width:0.54981405"
     />
  <rect
     x="258.06528"
     y="118.1933"
     width="32.221973"
     height="6.7329464"
     id="rect54"
     style="fill:#3f3d56;stroke-width:0.54981405" />
  <rect
     x="227.58026"
     y="81.717102"
     width="93.19207"
     height="2.8855507"
     id="line1"
     style="fill:#3f3d56;stroke-width:0.54981405" />
  <rect
     x="227.58026"
     y="93.053955"
     width="93.19207"
     height="2.8855507"
     id="line2"
     style="fill:#3f3d56;stroke-width:0.54981405" />
  <rect
     x="227.58026"
     y="104.39075"
     width="93.19207"
     height="2.8855507"
     id="line3"
     style="fill:#3f3d56;stroke-width:0.54981405" />
  <rect
     x="332.27069"
     y="28.745192"
     width="13.465914"
     height="13.465898"
     id="rect62"
     style="fill:#6c63ff;stroke-width:0.54981405" />
  <path
     d="M 351.98858,48.4631 H 335.63711 V 32.11162 h 16.35147 z m -15.6405,-0.71092 h 14.92954 V 32.82259 h -14.92958 z"
     id="path64"
     style="fill:#cccccc;stroke-width:0.54981405"
     />
  <path
     d="m 392.7996,208.14844 h -33.66477 v -2.42553 a 0.48090038,0.48090038 0 0 0 -0.48088,-0.48092 h -11.54226 a 0.48091137,0.48091137 0 0 0 -0.48095,0.48088 v 2.42557 h -7.21379 v -2.42553 a 0.48091137,0.48091137 0 0 0 -0.48092,-0.48092 h -11.54219 a 0.48090587,0.48090587 0 0 0 -0.48092,0.48092 v 0 2.42553 h -7.21387 v -2.42553 a 0.48090587,0.48090587 0 0 0 -0.48091,-0.48092 H 307.6759 a 0.48091137,0.48091137 0 0 0 -0.48093,0.48092 v 0 2.42553 h -7.21385 v -2.42553 a 0.48091137,0.48091137 0 0 0 -0.48091,-0.48092 H 287.958 a 0.48090038,0.48090038 0 0 0 -0.48091,0.48088 v 2.42557 h -7.21387 v -2.42553 a 0.48091137,0.48091137 0 0 0 -0.48092,-0.48092 h -11.5422 a 0.48090587,0.48090587 0 0 0 -0.48092,0.48092 v 0 2.42553 h -7.21389 v -2.42553 a 0.48090587,0.48090587 0 0 0 -0.48092,-0.48092 h -11.5422 a 0.48091137,0.48091137 0 0 0 -0.48093,0.48092 v 0 2.42553 h -7.21386 v -2.42553 a 0.48091137,0.48091137 0 0 0 -0.48091,-0.48092 H 149.9326 a 0.48090587,0.48090587 0 0 0 -0.48092,0.48092 v 0 2.42553 h -7.21389 v -2.42553 a 0.48090587,0.48090587 0 0 0 -0.48092,-0.48092 h -11.54218 a 0.48091137,0.48091137 0 0 0 -0.48091,0.48092 v 0 2.42553 h -7.2139 v -2.42553 a 0.48090038,0.48090038 0 0 0 -0.48089,-0.48092 h -11.54224 a 0.48090587,0.48090587 0 0 0 -0.48092,0.48092 v 0 2.42553 h -7.21389 v -2.42553 a 0.48090587,0.48090587 0 0 0 -0.48092,-0.48092 H 90.778816 a 0.48091137,0.48091137 0 0 0 -0.48092,0.48092 v 0 2.42553 h -7.21385 v -2.42553 a 0.48090587,0.48090587 0 0 0 -0.48092,-0.48092 h -11.5422 a 0.48091137,0.48091137 0 0 0 -0.48093,0.48092 v 0 2.42553 h -7.21388 v -2.42553 a 0.48091137,0.48091137 0 0 0 -0.48093,-0.48092 h -11.54221 a 0.48091137,0.48091137 0 0 0 -0.48093,0.48088 v 2.42557 h -7.21385 v -2.42553 a 0.48090587,0.48090587 0 0 0 -0.48091,-0.48092 h -11.5422 a 0.48092237,0.48092237 0 0 0 -0.48093,0.48092 v 0 2.42553 H 9.0215861 a 11.542203,11.542203 0 0 0 -11.54218,11.5422 v 5.21912 a 11.542197,11.542197 0 0 0 11.54218,11.54216 H 392.7996 a 11.542208,11.542208 0 0 0 11.54219,-11.54216 v -5.21912 a 11.542192,11.542192 0 0 0 -11.54219,-11.5422 z"
     id="path66"
     style="fill:#3f3d56;stroke-width:0.54981405"
     />
</svg>