<svg id="codeTyping" data-name="Layer 1" xmlns="http://www.w3.org/2000/svg" width="1058" height="434.74542" viewBox="0 0 468.3986 434.74541">
  <rect
     x="186.99274"
     y="135.20677"
     width="25.176001"
     height="25.17601"
     style="isolation:isolate;fill:#e6e6e6"
     id="rect4" />
  <rect
     x="288.20029"
     y="135.20677"
     width="25.17601"
     height="25.17601"
     style="isolation:isolate;fill:#e6e6e6"
     id="rect6" />
  <rect
     x="237.59653"
     y="135.20677"
     width="25.17601"
     height="25.17601"
     style="isolation:isolate;fill:#e6e6e6"
     id="rect8" />
  <g
     id="g933"
     transform="translate(-279.60234,-2e-5)">
    <g
       id="bracketright">
      <polygon
         points="743.154,159.977 662.339,240.54 643.457,221.721 705.39,159.977 643.457,98.233 662.339,79.414 "
         style="isolation:isolate;fill:#e6e6e6"
         id="polygon2" />
      <polygon
         points="743.154,148.019 662.339,228.582 643.457,209.763 705.39,148.019 643.457,86.274 662.339,67.455 "
         id="polygon12"
         style="fill:#6c63ff" />
    </g>
  </g>
  <path
     d="m 186.99272,152.42418 h 25.176 v -25.176 h -25.17606 z m 126.38359,-25.176 h -25.176 v 25.176 h 25.176 z m -75.77981,25.176 h 25.176 v -25.176 h -25.176 z"
     id="path14"
     style="fill:#6c63ff"
  />
  <g
     id="bracketleft"
     transform="translate(-279.60234,-2e-5)">
    <polygon
       id="polygon10"
       style="isolation:isolate;fill:#e6e6e6"
       points="332.785,159.348 413.6,239.911 432.482,221.092 370.486,159.348 432.419,97.604 413.537,78.785 " />
    <polygon
       id="polygon16"
       points="332.785,147.389 413.6,227.952 432.482,209.133 370.486,147.389 432.419,85.645 413.537,66.826 "
       style="fill:#6c63ff" />
  </g>
  <g
     id="man"
     transform="translate(-279.60234,-2e-5)">
    <polygon
       id="polygon18"
       points="163.248,361.117 142.447,356.088 129.305,410.449 143.399,413.856 "
       style="fill:#a0616a" />
    <path
       id="path20"
       transform="translate(-71,-232.62729)"
       d="m 193.63206,655.732 4.3279,-17.902 27.57443,6.66619 a 18.03222,18.03222 0 0 1 13.27516,21.74027 l -0.0954,0.394 z"
       style="fill:#2f2e41"
    />
    <polygon
       id="polygon22"
       points="213.093,364.122 191.694,364.123 191.696,420.05 206.196,420.049 "
       style="fill:#a0616a" />
    <path
       id="path24"
       transform="translate(-71,-232.62729)"
       d="m 259.18336,648.12878 28.36885,-10e-4 h 7.9e-4 a 18.01192,18.01192 0 0 1 18.012,18.0114 v 0.40553 l -46.3808,0.002 z"
       style="fill:#2f2e41"
    />
    <path
       id="path26"
       transform="translate(-71,-232.62729)"
       d="m 259.29356,633.32467 2.38386,-87.00733 -3.21111,-35.28086 -6.26571,27.151 -27.37942,89.28493 -23.60325,-6.21141 27.33582,-96.27019 -5.93712,-61.74814 17.05775,-10.96528 0.23013,0.0416 58.27861,10.74237 -14.07821,167.78246 z"
       style="fill:#2f2e41"
    />
    <path
       id="path28"
       transform="translate(-71,-232.62729)"
       d="m 282.35859,475.17467 c -4.69322,0 -10.18192,-1.51185 -16.29171,-5.82451 -19.551,-13.79842 -42.86266,1.04525 -43.09625,1.19539 l -0.9465,0.6156 0.0332,-1.1284 c 0.0237,-0.80386 2.36509,-80.71159 2.36509,-106.42468 0,-26.56546 17.33205,-45.962 22.64433,-51.27373 5.21382,-5.21468 9.601,-5.09919 15.15465,-4.95482 0.95689,0.0243 1.95449,0.0508 3.00378,0.0508 7.25755,0 14.31354,6.97255 14.61037,7.26938 l 0.14177,0.14206 0.0263,0.19866 20.13863,151.63135 -0.15419,0.19519 c -0.0933,0.11896 -6.70633,8.30769 -17.62946,8.30769 z"
       style="fill:#cccccc"
    />
    <circle
       id="circle30"
       transform="rotate(-61.3368,36.666779,212.98099)"
       r="29.04805"
       cy="269.43063"
       cx="268.30765"
       style="fill:#a0616a" />
    <path
       id="path32"
       transform="translate(-71,-232.62729)"
       d="m 312.77524,499.45367 a 11.89282,11.89282 0 0 1 -0.69,-18.22321 l -16.49624,-38.91084 21.5994,3.97529 12.35367,36.34094 a 11.95731,11.95731 0 0 1 -16.76682,16.81782 z"
       style="fill:#a0616a"
    />
    <path
       id="path34"
       transform="translate(-71,-232.62729)"
       d="m 308.10258,477.30444 -29.80746,-60.80685 -13.06993,-45.76567 0.0104,-39.75752 c 0.0294,-0.15708 3.102,-15.62212 14.49025,-14.55262 10.32658,1.0002 15.88834,6.04973 18.597,16.8845 2.301,9.204 -0.846,36.50975 -1.15064,39.08649 1.9981,4.73768 31.97592,76.16447 27.013,84.76553 a 2.18414,2.18414 0 0 1 -0.78451,0.8131 l 5.312,11.21476 z"
       style="fill:#cccccc"
    />
    <path
       id="path36"
       transform="translate(-71,-232.62729)"
       d="m 264.59343,280.3744 c 3.48214,0.45308 6.10882,-3.10969 7.32709,-6.40307 1.21827,-3.29338 2.14653,-7.12755 5.174,-8.90657 4.13617,-2.43049 9.42822,0.49275 14.15814,-0.30915 5.34156,-0.90559 8.81456,-6.56659 9.08675,-11.97752 0.27219,-5.41093 -1.8811,-10.61511 -3.99389,-15.60394 l -0.7376,6.2 a 12.295,12.295 0 0 0 -5.37281,-10.74684 l 0.9507,9.09752 a 9.65567,9.65567 0 0 0 -11.10838,-7.9897 l 0.14973,5.42064 c -6.1695,-0.73362 -12.39291,-1.46827 -18.58067,-0.90936 -6.18776,0.55891 -12.41874,2.51667 -17.10855,6.59179 -7.01521,6.09574 -9.57732,16.1331 -8.71716,25.38683 0.86016,9.25373 4.68008,17.94693 8.6613,26.34462 1.00168,2.11288 2.38715,4.49712 4.7099,4.76627 2.087,0.24183 3.99666,-1.50276 4.64544,-3.50106 a 12.69016,12.69016 0 0 0 -0.0563,-6.234 c -0.587,-3.1191 -1.32688,-6.30722 -0.775,-9.43271 0.55188,-3.12549 2.80033,-6.21408 5.951,-6.59711 3.15067,-0.38303 6.37453,3.21831 4.85976,6.00735 z"
       style="fill:#2f2e41"
    />
  </g>
  <g
     id="woman"
     transform="translate(-279.60234,-2e-5)">
    <path
       id="path38"
       transform="translate(-71,-232.62729)"
       d="m 983.59122,495.58011 a 10.05576,10.05576 0 0 1 2.3586,-15.23787 l -7.4341,-34.953 17.28994,6.77433 4.40884,32.1534 a 10.11027,10.11027 0 0 1 -16.62328,11.26316 z"
       style="fill:#ffb8b8"
    />
    <path
       id="path40"
       transform="translate(-71,-232.62729)"
       d="m 981.62765,468.308 -0.0928,-0.34339 c -9.34669,-34.5709 -19.00838,-70.30806 -30.8041,-109.21933 l -0.0774,-0.2549 0.26022,-0.15181 c 6.57463,-3.83653 16.45658,-3.58105 22.986,0.59367 a 17.15009,17.15009 0 0 1 7.44359,18.19132 l 8.60322,44.85729 c 3.49772,14.663 7.11763,29.84049 10.57722,44.80585 l 0.098,0.42426 -0.5358,0.0342 c -6.2993,0.40058 -12.80734,0.81488 -18.0214,1.0436 z"
       style="fill:#cccccc"
    />
    <polygon
       id="polygon42"
       points="813.1,374.457 831.194,374.457 831.194,421.744 818.934,421.744 "
       style="fill:#ffb8b8" />
    <path
       id="path44"
       transform="translate(-71,-232.62729)"
       d="m 905.32117,666.25558 h -39.53076 v -0.5 a 15.40421,15.40421 0 0 1 15.387,-15.38672 h 24.1438 z"
       style="fill:#2f2e41"
    />
    <polygon
       id="polygon46"
       points="915.121,372.069 932.362,366.575 946.719,411.631 935.037,415.353 "
       style="fill:#ffb8b8" />
    <path
       id="path48"
       transform="translate(-71,-232.62729)"
       d="m 986.64124,666.63351 -0.15162,-0.47657 a 15.40435,15.40435 0 0 1 9.989,-19.332 l 23.00418,-7.33008 4.8232,15.13672 z"
       style="fill:#2f2e41"
    />
    <circle
       id="circle50"
       r="24.561029"
       cy="69.876328"
       cx="884.66705"
       style="fill:#ffb8b8" />
    <path
       id="path52"
       transform="translate(-71,-232.62729)"
       d="m 966.69432,297.95159 c 0.1396,-9.90634 -4.00632,-19.71729 -10.41658,-24.64995 a 16.64876,16.64876 0 0 0 -21.13211,0.37344 c -6.311,5.15746 -10.26257,15.11151 -9.92822,25.00948 14.14072,0.0402 28.28144,0.0804 41.47691,-0.73297 z"
       style="fill:#2f2e41"
    />
    <path
       id="path54"
       transform="translate(-71,-232.62729)"
       d="m 909.19348,639.15011 -0.4917,-0.0479 c -10.66577,-1.04688 -21.69482,-2.12793 -32.11792,-2.252 l -0.56689,-0.007 0.0774,-0.56153 c 2.46948,-17.88574 3.51636,-36.47949 4.52881,-54.46191 0.99976,-17.75586 2.0332,-36.11572 4.44092,-53.55322 1.01855,-4.66944 2.01123,-9.28321 3.00049,-13.88037 8.18554,-38.043 15.91723,-73.97657 31.8767,-109.54639 l 0.15088,-0.33594 0.36548,0.0439 c 14.97437,1.812 29.36328,7.27539 40.51538,15.3833 l 0.21607,0.15674 -0.0105,0.26709 c -0.21509,5.5249 -0.43774,11.23632 -0.10815,16.439 a 55.797,55.797 0 0 1 7.95385,49.2832 c 4.39112,14.6753 8.93091,29.84522 13.563,44.80957 11.24854,30.83838 22.8882,62.75147 34.8198,95.10108 l 0.1958,0.53027 -0.5505,0.12891 c -8.5847,2.01562 -17.44044,4.09375 -26.17677,4.90039 l -0.32983,0.0303 -0.15674,-0.292 A 712.85141,712.85141 0 0 1 936.30042,501.2297 c -2.98145,9.09228 -7.27637,17.29931 -11.43726,25.249 A 189.02218,189.02218 0 0 0 914.381,548.88058 c -1.84155,15.12109 -2.33008,31.5039 -2.802,47.34668 -0.44653,14.97949 -0.86816,29.12793 -2.3313,42.43164 z"
       style="fill:#2f2e41"
    />
    <path
       id="path56"
       transform="translate(-71,-232.62729)"
       d="m 947.28183,273.756 c 10.6461,-2.29372 22.42205,-0.11154 30.78278,7.07137 8.36073,7.18291 12.60642,19.60911 9.17169,30.26612 -3.43473,10.65701 -15.09593,18.15524 -25.6397,15.40318 3.02034,-8.51233 -0.37868,-18.96349 -7.76211,-23.86665 -8.75613,-5.81478 -11.16668,-19.6971 -6.55266,-28.87402 z"
       style="fill:#2f2e41"
    />
    <path
       id="path58"
       transform="translate(-71,-232.62729)"
       d="m 960.2074,420.99923 -0.38941,-0.17725 C 946.2367,414.62569 932.91956,409.8713 920.44226,405.53341 l -0.38257,-0.0825 -0.001,-1.10938 0.24829,0.0864 c 0.0522,-0.11523 0.11108,-0.24609 0.17016,-0.37646 0.17041,-0.377 0.28662,-0.63379 0.3855,-0.80372 l -0.003,-10e-4 c 1.04028,-2.11963 1.86718,-4.168 2.66674,-6.14893 0.8252,-2.04443 1.677,-4.15527 2.77759,-6.38867 a 19.35575,19.35575 0 0 1 -4.27637,-20.82861 c 2.75635,-6.53272 9.78418,-11.62061 17.16846,-12.46485 2.70581,-7.44873 8.73487,-23.10009 8.73487,-23.10009 0,0 12.67822,-0.34815 17.77685,-0.99512 l 0.0857,-0.0107 0.0842,0.0186 c 11.13086,2.439 20.42359,12.97168 22.5979,25.61377 1.83545,10.66992 -0.95166,22.87451 -7.84741,34.36572 a 148.03962,148.03962 0 0 1 -11.70947,16.08887 c -3.106,3.88379 -6.03955,7.55176 -8.47608,11.2461 z"
       style="fill:#cccccc"
    />
    <path
       id="path60"
       transform="translate(-71,-232.62729)"
       d="M 984.29217,290.49254 Z"
       style="fill:#2f2e41"
    />
    <path
       id="path62"
       transform="translate(-71,-232.62729)"
       d="m 984.7908,288.31066 c -7.45248,-1.11243 -13.30382,-8.73046 -12.45669,-16.21774 0.84713,-7.48728 8.2526,-13.60541 15.76524,-13.02465 7.51264,0.58076 13.88985,7.76435 13.57615,15.29287 -0.3136,7.52852 -7.3695,15.36986 -16.8847,13.94952 z"
       style="fill:#2f2e41"
    />
    <path
       id="path64"
       transform="translate(-71,-232.62729)"
       d="m 983.62732,283.45577 c -7.45239,-1.11242 -13.30371,-8.73047 -12.45654,-16.21771 a 15.24139,15.24139 0 0 1 8.88183,-11.73438 c -6.01,1.31543 -11.18237,6.55249 -11.88183,12.73438 -0.84717,7.48724 5.00415,15.10529 12.45654,16.21771 a 14.20792,14.20792 0 0 0 8.17188,-1.14294 14.50427,14.50427 0 0 1 -5.17188,0.14294 z"
       style="fill:#2f2e41"
    />
    <path
       id="path66"
       transform="translate(-71,-232.62729)"
       d="m 839.06875,415.43349 a 10.05575,10.05575 0 0 1 15.15306,-2.85319 l 30.47891,-18.65516 -0.6265,18.55912 -28.84725,14.87 a 10.11028,10.11028 0 0 1 -16.15822,-11.92072 z"
       style="fill:#ffb8b8"
    />
    <path
       id="path68"
       transform="translate(-71,-232.62729)"
       d="m 864.12832,404.49546 0.29286,-0.20188 c 29.48139,-20.33114 59.95745,-41.34787 92.71522,-65.43426 l 0.21456,-0.15789 0.22983,0.19477 c 5.80788,4.92069 8.85952,14.32312 7.09886,21.87045 A 17.15011,17.15011 0 0 1 950.00786,373.846 l -39.42775,23.05743 c -12.65982,8.18336 -25.764,16.65334 -38.7215,24.90159 l -0.36733,0.23385 -0.21077,-0.49378 c -2.47653,-5.8059 -5.03555,-11.80405 -6.98845,-16.644 z"
       style="fill:#cccccc"
    />
  </g>
  <path
     d="m 102.39766,434.7454 h -381 a 1,1 0 0 1 0,-2 h 381 a 1,1 0 1 1 0,2 z"
     id="path70"
     style="fill:#3f3d56"
  />
  <path
     d="m 777.39766,434.7454 h -381 a 1,1 0 0 1 0,-2 h 381 a 1,1 0 0 1 0,2 z"
     id="path72"
     style="fill:#3f3d56"
  />

</svg>
