<svg id="codeThinking" data-name="Layer 1" xmlns="http://www.w3.org/2000/svg" width="357.45938" height="153.11253" viewBox="0 0 158.2547 153.11253">
  <g
     id="person"
     transform="matrix(0.35062769,0,0,0.35062769,-96.18495,0)">
    <path
       id="path2"
       transform="translate(-90.2579,-231.65939)"
       d="m 314.02808,475.27364 a 9.75072,9.75072 0 1 0 -19.40734,1.28194 l -28.01439,36.68607 a 13.58254,13.58254 0 0 0 1.83575,14.91417 l 2.19759,2.56354 10.083,-2.01667 11.42794,-10.08331 -1.34463,-11.42774 14.1167,-22.18324 -0.0183,-0.0159 a 9.74283,9.74283 0 0 0 9.12363,-9.71884 z"
       style="fill:#ffb9b9"
       />
    <polygon
       id="polygon4"
       points="95.549,405.331 30.041,422.968 25.468,405.984 88.8,380.265 "
       style="fill:#ffb8b8" />
    <path
       id="path6"
       transform="translate(-90.2579,-231.65939)"
       d="m 105.002,663.39128 -14.7441,-54.76212 0.69264,-0.18651 a 22.07516,22.07516 0 0 1 27.054,15.57522 l 3.7e-4,10e-4 9.00509,33.44687 z"
       style="fill:#2f2e41"
       />
    <polygon
       id="polygon8"
       points="157.179,365.388 117.278,420.254 103.054,409.91 136.185,350.121 "
       style="fill:#ffb8b8" />
    <path
       id="path10"
       transform="translate(-90.2579,-231.65939)"
       d="m 201.1368,668.34061 -45.86612,-33.35531 0.42187,-0.58015 a 22.07517,22.07517 0 0 1 30.8348,-4.87041 l 10e-4,8.2e-4 28.01339,20.37244 z"
       style="fill:#2f2e41"
       />
    <path
       id="path12"
       transform="translate(-90.2579,-231.65939)"
       d="m 328.45025,568.36357 -35.795,-34.77263 a 18.07626,18.07626 0 0 0 -23.66833,-1.3221 l -67.58632,75.08366 6.05018,9.41084 64.53278,-43.69434 43.69437,57.13867 41.67764,-20.83841 z"
       style="fill:#2f2e41"
       />
    <path
       id="path14"
       transform="translate(-90.2579,-231.65939)"
       d="m 312.98939,575.75807 -26.21673,-2.01667 -18.986,-4.60272 a 9.75256,9.75256 0 1 0 -1.85,12.65572 l -0.003,0.0136 11.42793,4.70553 49.07181,16.80551 6.05,-4.70553 z"
       style="fill:#ffb9b9"
       />
    <polygon
       id="polygon16"
       points="172.315,395.86 53.332,417.371 49.971,391.826 158.871,344.099 254.326,375.693 285.92,416.699 271.131,426.11 253.653,426.11 "
       style="fill:#2f2e41" />
    <circle
       id="circle18"
       r="26.216579"
       cy="227.13245"
       cx="254.32578"
       style="fill:#ffb9b9" />
    <path
       id="path20"
       transform="translate(-90.2579,-231.65939)"
       d="m 412.41738,563.46316 a 150.631,150.631 0 0 1 -7.3877,46.59159 l -1.96286,6.03657 -9.4111,43.0221 -10.08328,2.68886 -7.39442,-9.41107 -14.78884,-10.7555 -10.75552,-17.47771 -9.22284,-15.367 -2.87712,-4.79967 -10.08331,-50.41649 -38.31653,-21.511 -12.77217,-2.01667 2.68889,-7.39442 11.42774,-15.46106 11.42768,-1.34449 3.36111,-2.68888 2.68888,1.34443 14.82257,5.71013 48.05688,-20.304 7.03142,1.14951 24.19988,20.16661 a 150.49912,150.49912 0 0 1 9.35064,52.23816 z"
       style="fill:#cccccc"
       />
    <polygon
       id="polygon22"
       style="opacity:0.1;isolation:isolate"
       points="242.226,331.999 263.065,293.683 314.825,325.949 289.281,342.754 251.153,377.131 248.276,372.332 240.209,331.999 " />
    <polygon
       id="polygon24"
       points="289.281,338.721 314.825,321.915 263.065,289.649 242.226,327.965 230.126,341.41 219.371,344.099 248.276,375.693 "
       style="fill:#cccccc" />
    <path
       id="path26"
       transform="translate(-90.2579,-231.65939)"
       d="m 324.19252,439.29866 -2.8405,1.09286 a 3.96532,3.96532 0 0 1 -1.06033,-5.50666 q 0.0229,-0.0339 0.0466,-0.0673 l -5.24917,-0.24564 a 39.63744,39.63744 0 0 1 59.17341,-4.76951 c 0.239,-0.8231 2.84419,0.7783 3.90783,2.40209 0.35739,-1.33937 2.8001,5.13521 3.66407,9.71188 0.4,-1.52384 1.93791,0.9362 0.59056,3.2967 0.8537,-0.12472 1.23931,2.05947 0.57843,3.27633 0.934,-0.43878 0.77654,2.16855 -0.23609,3.911 1.3327,-0.11841 -0.1137,27.33122 -20.1137,25.33122 -1.39236,-6.39749 -1,-6 -2.63957,-14.22639 -0.76312,-0.81 -1.59882,-1.54779 -2.43315,-2.28425 l -4.51259,-3.9833 c -5.2473,-4.63182 -10.02063,-10.34844 -17.01093,-12.07955 -4.80393,-1.18968 -7.84143,-1.45827 -5.22344,-6.87151 -2.36532,0.98706 -4.57411,2.45493 -6.96063,3.37169 0.0321,-0.7564 0.36561,-1.60282 0.31919,-2.35961 z"
       style="fill:#2f2e41"
       />
    <circle
       id="circle28"
       r="4.7055402"
       cy="230.15744"
       cx="267.43405"
       style="fill:#ffb9b9" />
  </g>
  <rect
     x="-54.490574"
     y="-76.407173"
     width="7.577096"
     height="7.577096"
     transform="rotate(-86.18992)"
     style="isolation:isolate;fill:#e6e6e6;stroke-width:0.35062766"
     id="rect30" />
  <path
     d="m -84.23358,45.747076 9.18042,0.611382 -0.61139,9.180426 -9.18042,-0.611382 z m 8.75469,0.983958 -8.38212,-0.558223 -0.55823,8.382109 8.38213,0.558216 z"
     id="path32"
     style="fill:#cccccc;stroke-width:0.35062766"
     />
  <rect
     x="-47.447952"
     y="11.187666"
     width="7.577096"
     height="7.577096"
     transform="rotate(-12.12675)"
     style="isolation:isolate;fill:#e6e6e6;stroke-width:0.35062766"
     id="rect34" />
  <path
     d="m -41.83047,15.725721 1.932856,8.995436 -8.995446,1.932848 -1.93284,-8.995436 z m 1.45772,8.688368 -1.76479,-8.213228 -8.21323,1.764783 1.76478,8.213234 z"
     id="path36"
     style="fill:#cccccc;stroke-width:0.35062766"
     />
  <rect
     x="-77.516541"
     y="9.697793"
     width="7.5770922"
     height="7.577096"
     transform="rotate(-43.12712)"
     style="isolation:isolate;fill:#e6e6e6;stroke-width:0.35062766"
     id="rect38" />
  <path
     d="m -38.837461,54.114912 -6.715059,6.289824 -6.28982,-6.715075 6.71507,-6.289812 z m -6.696579,5.724389 6.131144,-5.74287 -5.742874,-6.131147 -6.13115,5.742883 z"
     id="path40"
     style="fill:#cccccc;stroke-width:0.35062766"
     />
  <path
     d="M 241.56668,0 H 17.381366 A 6.1705179,6.1705179 0 0 0 11.21084,6.1705196 V 131.0824 a 6.1705354,6.1705354 0 0 0 6.170526,6.17055 H 241.56668 a 6.1705424,6.1705424 0 0 0 6.17052,-6.17055 V 6.1705196 A 6.1705284,6.1705284 0 0 0 241.56668,0 Z"
     id="path42"
     style="fill:#3f3d56;stroke-width:0.35062766"
     />
  <rect
     x="19.483627"
     y="10.905023"
     width="219.98077"
     height="124.09171"
     id="rect44"
     style="fill:#ffffff;stroke-width:0.35062766" />
  <circle
     cx="129.286"
     cy="5.2645011"
     r="2.2562087"
     id="circle46"
     style="fill:#ffffff;stroke-width:0.35062766" />
  <polygon
     points="329.89,385.015 329.89,31.102 777.858,385.015 "
     style="isolation:isolate;fill:#f2f2f2"
     id="polygon48"
     transform="matrix(0.35062769,0,0,0.35062769,-96.18495,0)" />
  <circle
     cx="53.90403"
     cy="104.56568"
     r="21.145235"
     id="circle"
     style="fill:#6c63ff;stroke-width:0.35062766" />
  <path
     d="m 58.611182,120.45836 a 26.302605,26.302605 0 1 1 26.302624,-26.3026 26.30261,26.30261 0 0 1 -26.302624,26.3026 z m 0,-52.261413 A 25.958787,25.958787 0 1 0 84.569972,94.155773 25.958784,25.958784 0 0 0 58.611175,68.196972 Z"
     id="path52"
     style="fill:#3f3d56;stroke-width:0.35062766"
     />
  <rect
     x="167.99089"
     y="75.374283"
     width="20.548613"
     height="4.2937379"
     id="rect54"
     style="fill:#3f3d56;stroke-width:0.35062766" />
  <rect
     x="148.54997"
     y="52.112667"
     width="59.430492"
     height="1.8401748"
     id="line1"
     style="fill:#3f3d56;stroke-width:0.35062766" />
  <rect
     x="148.54997"
     y="59.342411"
     width="59.430492"
     height="1.8401748"
     id="line2"
     style="fill:#3f3d56;stroke-width:0.35062766" />
  <rect
     x="148.54997"
     y="66.572113"
     width="59.430492"
     height="1.8401748"
     id="line3"
     style="fill:#3f3d56;stroke-width:0.35062766" />
  <rect
     x="215.31322"
     y="18.331398"
     width="8.5874891"
     height="8.5874786"
     id="rect62"
     style="fill:#6c63ff;stroke-width:0.35062766" />
  <path
     d="M 227.88771,30.905911 H 217.46004 V 20.478237 h 10.42767 z m -9.97426,-0.453368 h 9.52087 v -9.520905 h -9.5209 z"
     id="path64"
     style="fill:#cccccc;stroke-width:0.35062766"
     />
  <path
     d="m 253.91373,132.74052 h -21.46871 v -1.54681 a 0.30668002,0.30668002 0 0 0 -0.30666,-0.30669 h -7.36074 a 0.30668702,0.30668702 0 0 0 -0.30671,0.30667 v 1.54683 h -4.60038 v -1.54681 a 0.30668702,0.30668702 0 0 0 -0.3067,-0.30669 h -7.36069 a 0.30668352,0.30668352 0 0 0 -0.30669,0.30669 v 0 1.54681 h -4.60043 v -1.54681 a 0.30668352,0.30668352 0 0 0 -0.30669,-0.30669 h -7.36072 a 0.30668702,0.30668702 0 0 0 -0.3067,0.30669 v 0 1.54681 h -4.60042 v -1.54681 a 0.30668702,0.30668702 0 0 0 -0.30669,-0.30669 h -7.3607 a 0.30668002,0.30668002 0 0 0 -0.30669,0.30667 v 1.54683 h -4.60043 v -1.54681 a 0.30668702,0.30668702 0 0 0 -0.30669,-0.30669 h -7.3607 a 0.30668352,0.30668352 0 0 0 -0.30669,0.30669 v 0 1.54681 h -4.60045 v -1.54681 a 0.30668352,0.30668352 0 0 0 -0.30669,-0.30669 h -7.3607 a 0.30668702,0.30668702 0 0 0 -0.30669,0.30669 v 0 1.54681 h -4.60043 v -1.54681 a 0.30668702,0.30668702 0 0 0 -0.30669,-0.30669 H 99.032478 a 0.30668352,0.30668352 0 0 0 -0.306693,0.30669 v 0 1.54681 H 94.12534 v -1.54681 a 0.30668352,0.30668352 0 0 0 -0.306693,-0.30669 h -7.360684 a 0.30668702,0.30668702 0 0 0 -0.306686,0.30669 v 0 1.54681 h -4.600452 v -1.54681 a 0.30668002,0.30668002 0 0 0 -0.306673,-0.30669 h -7.360723 a 0.30668352,0.30668352 0 0 0 -0.306693,0.30669 v 0 1.54681 h -4.600445 v -1.54681 a 0.30668352,0.30668352 0 0 0 -0.306693,-0.30669 h -7.360699 a 0.30668702,0.30668702 0 0 0 -0.306693,0.30669 v 0 1.54681 h -4.60042 v -1.54681 a 0.30668352,0.30668352 0 0 0 -0.306692,-0.30669 h -7.360698 a 0.30668702,0.30668702 0 0 0 -0.306699,0.30669 v 0 1.54681 h -4.600439 v -1.54681 a 0.30668702,0.30668702 0 0 0 -0.306699,-0.30669 h -7.360704 a 0.30668702,0.30668702 0 0 0 -0.306699,0.30667 v 1.54683 h -4.600419 v -1.54681 a 0.30668352,0.30668352 0 0 0 -0.306686,-0.30669 h -7.360698 a 0.30669404,0.30669404 0 0 0 -0.306699,0.30669 v 0 1.54681 H 9.1706395 a 7.3606991,7.3606991 0 0 0 -7.360685,7.3607 v 3.32834 a 7.3606953,7.3606953 0 0 0 7.360685,7.36067 H 253.91373 a 7.3607023,7.3607023 0 0 0 7.3607,-7.36067 v -3.32834 a 7.3606921,7.3606921 0 0 0 -7.3607,-7.3607 z"
     id="path66"
     style="fill:#3f3d56;stroke-width:0.35062766"
     />
</svg>
